<?xml version="1.0" encoding="utf-8"?>
<!-- Generator: Adobe Illustrator 20.1.0, SVG Export Plug-In . SVG Version: 6.00 Build 0)  -->
<svg version="1.1" id="Слой_1" xmlns="http://www.w3.org/2000/svg" xmlns:xlink="http://www.w3.org/1999/xlink" x="0px" y="0px"
	 viewBox="0 0 590.068 116.345" enable-background="new 0 0 590.068 116.345" xml:space="preserve">
<polygon fill="#38B2FF" points="20.734,45.189 9.615,56.325 3.712,56.325 3.712,45.189 0,45.189 0,71.156 3.712,71.156 
	3.712,60.037 9.615,60.037 20.734,71.156 25.967,71.156 12.983,58.172 25.967,45.189 "/>
<path fill="#38B2FF" d="M29.667,71.155V52.613c0-0.99,0.193-1.932,0.579-2.813c0.387-0.893,0.912-1.672,1.576-2.354
	s1.448-1.232,2.354-1.642c0.905-0.41,1.877-0.616,2.915-0.616H48.21c0.989,0,1.931,0.194,2.824,0.58
	c0.894,0.386,1.672,0.911,2.336,1.575c0.664,0.664,1.202,1.449,1.612,2.354c0.41,0.906,0.628,1.877,0.652,2.916v18.542h-3.712
	v-7.424H33.379v7.424H29.667z M33.379,60.037h18.543v-7.424c0-1.039-0.362-1.914-1.081-2.632c-0.718-0.718-1.593-1.08-2.631-1.08
	H37.091c-1.038,0-1.919,0.362-2.632,1.08c-0.724,0.718-1.08,1.593-1.08,2.632V60.037z"/>
<polygon fill="#38B2FF" points="61.181,71.156 61.181,45.189 87.148,45.189 87.148,71.156 83.436,71.156 83.436,48.901 
	64.893,48.901 64.893,71.156 "/>
<path fill="#38B2FF" d="M92.339,63.732V52.614c0-0.99,0.193-1.932,0.567-2.813c0.387-0.894,0.906-1.666,1.582-2.342
	c0.664-0.664,1.455-1.207,2.36-1.618c0.905-0.41,1.877-0.628,2.915-0.652h11.119c0.99,0,1.931,0.193,2.812,0.58
	c0.894,0.386,1.666,0.911,2.342,1.575c0.664,0.664,1.202,1.449,1.606,2.354c0.404,0.906,0.628,1.877,0.664,2.916h-3.712
	c0-1.039-0.362-1.914-1.081-2.632c-0.718-0.718-1.593-1.081-2.631-1.081H99.763c-1.038,0-1.919,0.363-2.631,1.081
	c-0.725,0.718-1.081,1.593-1.081,2.632v11.118c0,1.038,0.356,1.919,1.081,2.632c0.712,0.724,1.593,1.08,2.631,1.08h11.119
	c1.038,0,1.913-0.356,2.631-1.08c0.719-0.713,1.081-1.594,1.081-2.632h3.712c0,0.99-0.193,1.932-0.579,2.825
	c-0.387,0.893-0.918,1.678-1.582,2.354c-0.676,0.676-1.461,1.219-2.354,1.63c-0.905,0.41-1.871,0.615-2.909,0.615H99.763
	c-0.99,0-1.937-0.193-2.843-0.567c-0.905-0.386-1.702-0.905-2.384-1.582c-0.682-0.663-1.219-1.454-1.605-2.36
	C92.532,65.742,92.339,64.77,92.339,63.732"/>
<path fill="#38B2FF" d="M122.731,52.613v-7.424h3.712v7.424c0,1.038,0.356,1.919,1.081,2.632c0.712,0.724,1.593,1.08,2.631,1.08
	h14.831V45.189h3.712v18.542c0,0.99-0.193,1.932-0.579,2.825c-0.387,0.894-0.918,1.678-1.582,2.354
	c-0.676,0.676-1.461,1.22-2.354,1.63c-0.905,0.41-1.871,0.616-2.909,0.616H130.88c-1.014,0-1.968-0.193-2.849-0.568
	c-0.894-0.386-1.666-0.905-2.342-1.581c-0.664-0.664-1.202-1.455-1.594-2.36c-0.392-0.906-0.597-1.877-0.622-2.916h3.713
	c0,1.039,0.356,1.92,1.068,2.632c0.712,0.724,1.587,1.081,2.626,1.081h10.394c1.038,0,1.913-0.357,2.631-1.081
	c0.719-0.712,1.081-1.593,1.081-2.632v-3.694h-14.831c-0.99,0-1.937-0.193-2.843-0.579c-0.905-0.386-1.702-0.912-2.384-1.576
	c-0.682-0.664-1.219-1.448-1.605-2.354C122.924,54.623,122.731,53.651,122.731,52.613"/>
<path fill="#38B2FF" d="M154.227,71.156V52.613c0-0.99,0.193-1.931,0.579-2.812c0.387-0.894,0.912-1.666,1.576-2.342
	c0.664-0.664,1.449-1.208,2.354-1.618c0.905-0.411,1.877-0.628,2.915-0.652h18.543v25.967h-3.712V48.901h-14.831
	c-1.038,0-1.919,0.362-2.631,1.081c-0.725,0.718-1.081,1.593-1.081,2.631v18.543H154.227z"/>
<path fill="#38B2FF" d="M185.741,71.155V52.613c0-0.99,0.193-1.932,0.579-2.813c0.387-0.893,0.912-1.672,1.576-2.354
	s1.448-1.232,2.354-1.642c0.905-0.41,1.877-0.616,2.915-0.616h11.119c0.989,0,1.931,0.194,2.824,0.58
	c0.894,0.386,1.672,0.911,2.336,1.575s1.202,1.449,1.612,2.354c0.41,0.906,0.628,1.877,0.652,2.916v18.542h-3.712v-7.424h-18.543
	v7.424H185.741z M189.453,60.037h18.543v-7.424c0-1.039-0.362-1.914-1.081-2.632c-0.718-0.718-1.593-1.08-2.631-1.08h-11.119
	c-1.038,0-1.919,0.362-2.632,1.08c-0.724,0.718-1.08,1.593-1.08,2.632V60.037z"/>
<path fill="#38B2FF" d="M378.173,70.9V45.445h18.177c0.946,0,1.864,0.19,2.751,0.569c0.888,0.378,1.663,0.893,2.325,1.544
	c0.663,0.651,1.196,1.42,1.598,2.307c0.402,0.888,0.604,1.841,0.604,2.858c0,2.178-0.823,3.994-2.468,5.45
	c1.645,1.455,2.468,3.272,2.468,5.449c0,0.994-0.19,1.923-0.557,2.787c-0.378,0.864-0.887,1.621-1.55,2.272
	c-0.651,0.651-1.426,1.178-2.313,1.58c-0.888,0.402-1.841,0.615-2.858,0.639H378.173z M381.812,56.362h14.538
	c1.017,0,1.875-0.349,2.58-1.059c0.704-0.698,1.059-1.562,1.059-2.58c0-1.017-0.355-1.875-1.059-2.58
	c-0.705-0.704-1.563-1.059-2.58-1.059h-14.538V56.362z M381.812,67.261h14.538c1.017,0,1.875-0.349,2.58-1.059
	c0.704-0.698,1.059-1.562,1.059-2.58c0-1.018-0.355-1.876-1.059-2.574c-0.705-0.698-1.563-1.047-2.58-1.047h-14.538V67.261z"/>
<path fill="#38B2FF" d="M408.692,70.9V45.445h18.177c0.97,0,1.893,0.19,2.769,0.569c0.876,0.378,1.639,0.893,2.29,1.544
	c0.651,0.651,1.177,1.42,1.579,2.307c0.403,0.888,0.616,1.841,0.64,2.858v3.639c0,0.97-0.19,1.888-0.557,2.763
	c-0.378,0.864-0.887,1.639-1.55,2.308c-0.651,0.668-1.426,1.201-2.313,1.597c-0.888,0.397-1.841,0.592-2.858,0.592h-14.538V70.9
	H408.692z M412.331,60.001h14.538c1.017,0,1.875-0.349,2.58-1.053c0.704-0.704,1.059-1.568,1.059-2.586v-3.639
	c0-1.017-0.355-1.875-1.059-2.58c-0.705-0.704-1.563-1.059-2.58-1.059h-14.538V60.001z"/>
<polygon fill="#38B2FF" points="438.857,70.9 438.857,45.446 464.311,45.446 464.311,49.084 442.496,49.084 442.496,56.362 
	460.673,56.362 460.673,60.001 442.496,60.001 442.496,67.26 464.311,67.26 464.311,70.9 "/>
<polygon fill="#38B2FF" points="469.021,70.9 469.021,45.446 472.66,45.446 483.577,61.19 494.475,45.446 498.114,45.446 
	498.114,70.9 494.475,70.9 494.475,51.96 483.577,67.704 472.66,51.96 472.66,70.9 "/>
<polygon fill="#38B2FF" points="503.552,70.9 503.552,45.446 529.006,45.446 529.006,49.084 507.191,49.084 507.191,56.362 
	525.367,56.362 525.367,60.001 507.191,60.001 507.191,67.26 529.006,67.26 529.006,70.9 "/>
<polygon fill="#38B2FF" points="533.722,70.9 533.722,45.446 537.361,45.446 537.361,56.362 555.537,56.362 555.537,45.446 
	559.176,45.446 559.176,70.9 555.537,70.9 555.537,60.001 537.361,60.001 537.361,70.9 "/>
<polygon fill="#38B2FF" points="564.614,70.9 564.614,45.446 568.253,45.446 568.253,65.628 586.43,45.446 590.068,45.446 
	590.068,70.9 586.43,70.9 586.43,50.363 568.253,70.9 "/>
<path fill="#38B2FF" d="M352.988,58.172c0-32.128-26.045-58.173-58.172-58.173c-32.129,0-58.173,26.045-58.173,58.173
	s26.044,58.173,58.173,58.173C326.943,116.345,352.988,90.3,352.988,58.172 M337.474,40.69l0.11-0.11l-0.11-0.11V23.569
	c7.685,9.456,12.311,21.495,12.311,34.602c0,0.258-0.036,0.507-0.039,0.764l-12.272,12.272V40.69z M334.067,19.76v17.303
	l-21.584-21.584L300.501,3.497C313.599,4.85,325.329,10.833,334.067,19.76 M294.815,83.348l14.261,14.261h-28.521L294.815,83.348z
	 M280.398,92.948V76.029h7.097l4.911,4.911L280.398,92.948z M297.224,80.94l4.911-4.911h6.948v16.769L297.224,80.94z
	 M305.542,72.621l0.032-0.031h-4.818l-0.031,0.031l-3.408,3.408l-2.502,2.502l-2.502-2.502l-3.407-3.408l-0.031-0.031h-4.818
	l0.031,0.031h-3.69v-3.689l0.075,0.074v-4.817l-0.075-0.075l-3.407-3.407l-2.459-2.459l5.866-5.866l0.075-0.075v-4.818l-0.075,0.075
	v-3.627h0.075v-0.031h8.402l5.94-5.941l2.566,2.565l3.375,3.376h8.401v8.401l3.333,3.332l2.608,2.609l-2.608,2.608l-3.333,3.332
	v8.402h-0.074v0.031H305.542z M256.915,40.53l20.076-20.076V40.53H256.915z M276.991,43.937v7.034l-4.867,4.868l-11.902-11.902
	H276.991z M269.715,58.248l-14.304,14.304V43.944L269.715,58.248z M260.159,72.621l11.965-11.964l4.867,4.867v7.097H260.159z
	 M276.991,76.029v20.013l-20.013-20.013H276.991z M294.815,33.147L280.618,18.95h28.395L294.815,33.147z M309.083,23.698V40.53
	h-6.885l-4.974-4.974L309.083,23.698z M292.406,35.556l-4.974,4.974h-7.034V23.548L292.406,35.556z M329.409,43.937l-11.902,11.902
	l-5.017-5.018v-6.884H329.409z M312.49,40.53V20.304l20.226,20.226H312.49z M329.472,72.621H312.49v-6.947l5.017-5.017
	L329.472,72.621z M312.49,76.029h20.163L312.49,96.192V76.029z M319.916,58.248l14.151-14.151v28.301L319.916,58.248z
	 M294.815,3.202c0.204,0,0.4,0.028,0.603,0.031l12.31,12.31h-30.517l-0.063-0.064l-0.064,0.064h-0.093h-16.818
	C269.635,7.839,281.69,3.202,294.815,3.202 M252.004,76.029v16.542c-7.589-9.428-12.158-21.384-12.158-34.4
	c0-0.203,0.028-0.4,0.031-0.603l12.127-12.127V76.029z M252.097,40.53h-0.093v0.093l-11.863,11.863
	c1.351-13.082,7.321-24.802,16.23-33.536h17.306L252.097,40.53z M255.411,96.416V79.282l21.58,21.58v0.154h0.155l11.806,11.805
	C275.847,111.424,264.125,105.393,255.411,96.416 M294.815,113.144c-0.257,0-0.505-0.035-0.761-0.039l-12.09-12.089h30.526h16.681
	C319.751,108.586,307.813,113.144,294.815,113.144 M315.89,97.609l21.581-21.58h0.003v-0.004l0.11-0.11l11.877-11.877
	c-1.398,13.12-7.443,24.854-16.438,33.571H315.89z"/>
</svg>
